# xmcd CD database file generated by OrangeCD 6.4
#
# Track frame offsets:
#	150
#	12033
#	25483
#	40491
#	53040
#	63575
#	75809
#	90740
#	99753
#	114075
#
# Disc length: 1760 seconds
#
# Revision: 2
# Processed by: cddbd v1.5.2PL0 Copyright (c) Steve Scherf et al.
# Submitted via: OrangeCD 6.4
#
DISCID=6806de0a
DTITLE=K C Booker - K C Booker
DYEAR=2006
DGENRE=Blues
TTITLE0=Crackerjack
TTITLE1=White Lightning
TTITLE2=Lulu
TTITLE3=Mojo Wind
TTITLE4=Butterberry
TTITLE5=Sweet Maribel
TTITLE6=Seesaw
TTITLE7=Jimmy Carter
TTITLE8=Baby Sister
TTITLE9=Let Me Be Your Pillow
EXTD=
EXTT0=
EXTT1=
EXTT2=
EXTT3=
EXTT4=
EXTT5=
EXTT6=
EXTT7=
EXTT8=
EXTT9=
PLAYORDER=
